<?xml version="1.0" standalone="no"?>
<!DOCTYPE svg PUBLIC "-//W3C//DTD SVG 20010904//EN"
 "http://www.w3.org/TR/2001/REC-SVG-20010904/DTD/svg10.dtd">
<svg version="1.0" xmlns="http://www.w3.org/2000/svg"
 width="377.000000pt" height="406.000000pt" viewBox="0 0 377.000000 406.000000"
 preserveAspectRatio="xMidYMid meet">

<g transform="translate(0.000000,406.000000) scale(0.100000,-0.100000)"
fill="#000000" stroke="none">
<path d="M1687 3754 c-4 -4 -7 -288 -7 -630 0 -604 -1 -625 -21 -678 -27 -73
-96 -148 -167 -183 l-57 -28 -645 -3 c-590 -2 -646 -4 -657 -19 -16 -21 -18
-345 -3 -374 10 -18 28 -19 618 -19 367 0 641 4 692 11 318 39 571 277 634
594 14 69 16 165 14 705 l-3 625 -196 3 c-107 1 -198 -1 -202 -4z"/>
<path d="M2245 2000 c-248 -65 -434 -236 -523 -482 l-27 -73 -3 -678 -3 -677
198 2 198 3 5 635 5 635 24 52 c28 63 112 145 178 176 47 22 55 22 698 27
l650 5 0 195 0 195 -665 2 c-620 2 -670 1 -735 -17z"/>
</g>
</svg>
